# xmcd
#
# Track frame offsets:
#	150
#	11535
#	33000
#	48924
#	66414
#	75882
#	92621
#	102896
#	130443
#	148410
#	164286
#	180850
#	195866
#	212355
#	235531
#	248517
#	263763
#
# Disc length: 3544 seconds
#
# Revision: 1
# Processed by: cddbd v1.5.1PL2 Copyright (c) Steve Scherf et al.
# Submitted via: audiograbber 1.83.01
#
DISCID=c80dd611
DTITLE=Seleccion mezclada por Dj Jekey - Ready for spain vol. 1
DYEAR=2004
DGENRE=Hip-Hop
TTITLE0=Dj Jekey - intro
TTITLE1=triple xxx feat. Mucho Muchacho, Sara y Dj Jekey - barro y fuego
TTITLE2=Zemo feat. Masstone y Socco - pratexpress
TTITLE3=Juan Profundo - me cago en to
TTITLE4=Herry Black feat. Principiante y Negro Che - principiante
TTITLE5=Leon Dramaz - la lucha del reparto
TTITLE6=Cyrano - basado en estilo
TTITLE7=Keyo - arden
TTITLE8=Falsalarma - el primer paso
TTITLE9=Jefe de la M - tal vez lo podreis negar
TTITLE10=Mucho Muchacho - raperitis
TTITLE11=La Puta Opepe - tiembla (roty340 rmx)
TTITLE12=Keyo feat. Masstone - mil kilometros
TTITLE13=Tote king and Shotta - estoy en forma
TTITLE14=Dogma Crew - los paisajes cambian
TTITLE15=Masstone - fuma
TTITLE16=Dj Jekey and Yazz - outro
EXTD=
EXTT0=
EXTT1=
EXTT2=
EXTT3=
EXTT4=
EXTT5=
EXTT6=
EXTT7=
EXTT8=
EXTT9=
EXTT10=
EXTT11=
EXTT12=
EXTT13=
EXTT14=
EXTT15=
EXTT16=
PLAYORDER=
